<svg xmlns="http://www.w3.org/2000/svg" viewBox="0 0 240 200"><rect width="240" height="200" rx="24" fill="#fff8ed"/><ellipse cx="120" cy="174" rx="78" ry="10" fill="#eadcc9"/><g stroke="#603f2b" stroke-width="4" stroke-linecap="round" stroke-linejoin="round"><ellipse cx="120" cy="113" rx="78" ry="56" fill="#df9e50"/><path d="M47 100 Q48 52 120 52 Q193 52 194 105 Q182 127 166 108 Q149 132 134 115 Q111 137 94 115 Q66 130 47 100Z" fill="#db97a0"/><ellipse cx="120" cy="92" rx="23" ry="16" fill="#fff8ed"/><path d="M72 85 l9 3 M99 66 l3 8 M151 74 l8 -3 M162 97 l-4 6 M83 105 l7 -4" stroke="#fff2c5" stroke-width="5"/></g></svg>